<svg width="16" height="16" viewBox="0 0 16 16" fill="none" xmlns="http://www.w3.org/2000/svg">
<path d="M10.8669 8L15.1668 3.70012C15.6944 3.17246 15.6944 2.31695 15.1668 1.78887L14.2111 0.833242C13.6835 0.305586 12.828 0.305586 12.2999 0.833242L8 5.13312L3.70012 0.833242C3.17246 0.305586 2.31695 0.305586 1.78887 0.833242L0.833242 1.78887C0.305586 2.31652 0.305586 3.17203 0.833242 3.70012L5.13312 8L0.833242 12.2999C0.305586 12.8275 0.305586 13.683 0.833242 14.2111L1.78887 15.1668C2.31652 15.6944 3.17246 15.6944 3.70012 15.1668L8 10.8669L12.2999 15.1668C12.8275 15.6944 13.6835 15.6944 14.2111 15.1668L15.1668 14.2111C15.6944 13.6835 15.6944 12.828 15.1668 12.2999L10.8669 8Z" fill="#808080"/>
</svg>
