<svg width="13" height="13" viewBox="0 0 13 13" fill="none" xmlns="http://www.w3.org/2000/svg">
<path d="M1.625 11.7813C1.625 12.1045 1.7534 12.4145 1.98196 12.643C2.21052 12.8716 2.52052 13 2.84375 13H10.1562C10.4795 13 10.7895 12.8716 11.018 12.643C11.2466 12.4145 11.375 12.1045 11.375 11.7813V3.25H1.625V11.7813ZM8.53125 5.28125C8.53125 5.17351 8.57405 5.07018 8.65024 4.99399C8.72642 4.91781 8.82976 4.875 8.9375 4.875C9.04524 4.875 9.14858 4.91781 9.22476 4.99399C9.30095 5.07018 9.34375 5.17351 9.34375 5.28125V10.9688C9.34375 11.0765 9.30095 11.1798 9.22476 11.256C9.14858 11.3322 9.04524 11.375 8.9375 11.375C8.82976 11.375 8.72642 11.3322 8.65024 11.256C8.57405 11.1798 8.53125 11.0765 8.53125 10.9688V5.28125ZM6.09375 5.28125C6.09375 5.17351 6.13655 5.07018 6.21274 4.99399C6.28892 4.91781 6.39226 4.875 6.5 4.875C6.60774 4.875 6.71108 4.91781 6.78726 4.99399C6.86345 5.07018 6.90625 5.17351 6.90625 5.28125V10.9688C6.90625 11.0765 6.86345 11.1798 6.78726 11.256C6.71108 11.3322 6.60774 11.375 6.5 11.375C6.39226 11.375 6.28892 11.3322 6.21274 11.256C6.13655 11.1798 6.09375 11.0765 6.09375 10.9688V5.28125ZM3.65625 5.28125C3.65625 5.17351 3.69905 5.07018 3.77524 4.99399C3.85142 4.91781 3.95476 4.875 4.0625 4.875C4.17024 4.875 4.27358 4.91781 4.34976 4.99399C4.42595 5.07018 4.46875 5.17351 4.46875 5.28125V10.9688C4.46875 11.0765 4.42595 11.1798 4.34976 11.256C4.27358 11.3322 4.17024 11.375 4.0625 11.375C3.95476 11.375 3.85142 11.3322 3.77524 11.256C3.69905 11.1798 3.65625 11.0765 3.65625 10.9688V5.28125ZM11.7812 0.812505H8.73438L8.4957 0.3377C8.44514 0.236192 8.36726 0.150805 8.27082 0.0911463C8.17438 0.0314874 8.06321 -7.68819e-05 7.9498 4.45167e-06H5.04766C4.93451 -0.000430503 4.82353 0.0310161 4.72743 0.0907413C4.63133 0.150467 4.554 0.236055 4.5043 0.3377L4.26562 0.812505H1.21875C1.11101 0.812505 1.00767 0.855306 0.931488 0.931492C0.855301 1.00768 0.8125 1.11101 0.8125 1.21875L0.8125 2.03125C0.8125 2.139 0.855301 2.24233 0.931488 2.31852C1.00767 2.3947 1.11101 2.4375 1.21875 2.4375H11.7812C11.889 2.4375 11.9923 2.3947 12.0685 2.31852C12.1447 2.24233 12.1875 2.139 12.1875 2.03125V1.21875C12.1875 1.11101 12.1447 1.00768 12.0685 0.931492C11.9923 0.855306 11.889 0.812505 11.7812 0.812505Z" fill="#E74C3C"/>
</svg>
