<svg width="32" height="32" viewBox="0 0 32 32" fill="none" xmlns="http://www.w3.org/2000/svg">
<path d="M31.5 16C31.5 24.5623 24.5598 31.5 16 31.5C7.44019 31.5 0.5 24.5623 0.5 16C0.5 7.44269 7.44019 0.5 16 0.5C24.5598 0.5 31.5 7.44269 31.5 16ZM16 19.125C14.4122 19.125 13.125 20.4122 13.125 22C13.125 23.5878 14.4122 24.875 16 24.875C17.5878 24.875 18.875 23.5878 18.875 22C18.875 20.4122 17.5878 19.125 16 19.125ZM13.2704 8.79088L13.7341 17.2909C13.7557 17.6886 14.0846 18 14.4829 18H17.5171C17.9154 18 18.2443 17.6886 18.2659 17.2909L18.7296 8.79088C18.753 8.36125 18.4109 8 17.9807 8H14.0192C13.589 8 13.247 8.36125 13.2704 8.79088Z" fill="#F43838"/>
</svg>
